<?xml version="1.0" standalone="no"?>
<!DOCTYPE svg PUBLIC "-//W3C//DTD SVG 20010904//EN"
 "http://www.w3.org/TR/2001/REC-SVG-20010904/DTD/svg10.dtd">
<svg version="1.0" xmlns="http://www.w3.org/2000/svg"
 width="1536.000000pt" height="1024.000000pt" viewBox="0 0 1536.000000 1024.000000"
 preserveAspectRatio="xMidYMid meet">

<g transform="translate(0.000000,1024.000000) scale(0.100000,-0.100000)"
fill="#000000" stroke="none">
<path d="M7411 8744 c-122 -21 -304 -85 -438 -153 l-115 -59 -62 28 c-139 62
-279 90 -456 90 -205 0 -387 -43 -565 -134 -142 -73 -250 -153 -367 -274 l-99
-104 -122 -3 c-280 -7 -495 -87 -722 -268 -167 -134 -321 -358 -387 -565 -21
-68 -26 -76 -68 -99 -233 -131 -360 -244 -477 -425 -91 -141 -162 -309 -199
-473 -9 -42 -18 -141 -21 -245 -5 -160 -3 -186 21 -301 43 -212 100 -352 213
-524 146 -221 309 -365 556 -491 176 -90 321 -137 550 -179 78 -15 145 -30
148 -33 4 -4 9 -27 12 -52 34 -276 165 -536 377 -751 159 -161 352 -277 560
-338 183 -54 234 -59 608 -60 315 -1 347 -3 395 -21 71 -27 195 -126 252 -202
71 -94 240 -449 489 -1025 108 -251 135 -308 143 -299 4 3 10 122 14 263 10
341 -2 404 -121 643 -47 93 -192 323 -232 367 -26 28 -18 49 40 96 26 22 124
114 217 206 94 92 310 301 480 466 171 164 382 369 470 455 88 86 167 161 176
168 20 15 152 -46 582 -266 88 -45 133 -49 186 -15 17 10 284 271 594 579 309
307 745 740 968 962 l406 403 26 -44 c60 -102 126 -129 214 -86 51 25 66 51
82 139 6 36 13 76 16 90 75 400 80 470 37 512 -41 41 -90 38 -338 -18 -334
-76 -374 -88 -406 -124 -31 -34 -35 -64 -15 -113 15 -36 79 -97 127 -122 l31
-16 -48 -56 c-26 -31 -439 -444 -917 -918 l-869 -862 -201 97 c-414 199 -437
207 -531 188 -45 -9 -62 -22 -170 -127 -66 -64 -160 -154 -210 -201 -130 -123
-692 -666 -887 -857 l-166 -164 -140 101 c-202 145 -179 140 -600 140 -364 0
-468 7 -592 42 -258 71 -497 265 -615 500 -53 107 -68 173 -63 293 3 84 6 99
43 171 30 59 61 100 125 165 176 177 391 260 640 246 159 -9 266 -48 360 -132
56 -50 102 -63 160 -46 72 21 130 120 115 194 -23 111 -209 242 -425 299 -73
19 -110 22 -270 22 -203 0 -282 -14 -440 -76 -80 -32 -216 -103 -225 -119 -4
-5 -11 -9 -17 -9 -6 0 -9 3 -6 6 10 9 -31 142 -67 222 -97 208 -273 366 -470
418 -33 8 -98 15 -144 15 -108 0 -163 -25 -198 -90 -29 -55 -29 -105 0 -156
34 -60 89 -86 203 -95 87 -6 98 -9 150 -45 66 -46 102 -88 138 -161 38 -77 46
-133 35 -241 -5 -52 -8 -99 -7 -106 2 -7 -5 -31 -16 -54 l-18 -41 -51 4 c-65
6 -303 66 -399 100 -341 123 -601 400 -702 749 -36 125 -53 300 -38 405 14 99
71 273 114 349 107 188 252 322 464 429 45 23 93 55 107 71 14 17 38 70 52
118 54 177 144 323 271 442 90 85 181 140 290 177 69 24 95 28 209 28 77 1
160 -5 203 -14 70 -14 75 -13 110 5 23 13 60 54 103 115 208 292 495 444 804
427 335 -18 645 -298 730 -658 22 -94 19 -170 -11 -276 -24 -82 -25 -99 -15
-133 25 -85 105 -138 191 -125 66 10 131 80 160 171 32 104 43 199 36 305 -13
212 -86 398 -237 606 -32 45 -59 83 -59 86 0 10 124 59 211 82 256 68 504 46
733 -65 44 -22 87 -44 95 -49 11 -7 1 -26 -49 -93 -69 -90 -139 -228 -165
-323 -22 -84 -30 -246 -16 -331 7 -38 28 -118 48 -179 29 -90 43 -117 74 -149
39 -38 39 -38 109 -34 50 2 77 9 97 24 80 60 91 132 40 275 -24 69 -34 116
-36 165 -7 289 245 522 549 508 299 -14 581 -219 736 -538 56 -114 77 -126
224 -126 169 -1 262 -25 396 -101 141 -81 265 -229 312 -374 11 -33 23 -96 26
-139 9 -97 26 -133 74 -153 49 -20 91 -12 172 36 84 50 95 73 87 179 -8 93
-27 169 -68 267 -145 348 -467 580 -901 650 -31 5 -42 14 -69 58 -220 362
-619 597 -1013 597 -50 0 -131 -7 -179 -14 l-89 -15 -71 53 c-169 124 -347
205 -552 252 -100 23 -432 28 -544 8z"/>
<path d="M6230 7480 c-40 -7 -153 -77 -249 -154 -104 -83 -215 -224 -274 -349
l-52 -108 -105 4 c-104 5 -119 9 -365 85 -194 60 -423 27 -516 -75 -72 -77
-49 -201 45 -244 50 -23 90 -24 146 -4 84 29 186 18 370 -40 121 -39 202 -53
315 -57 l80 -3 6 -55 c9 -83 46 -205 89 -297 46 -98 152 -268 191 -305 91 -87
225 -38 264 95 9 32 14 68 11 80 -3 12 -28 56 -55 98 -115 178 -163 309 -164
449 -1 206 81 349 295 510 152 115 178 165 146 272 -12 41 -67 97 -96 99 -9 0
-24 2 -32 3 -8 1 -31 0 -50 -4z"/>
<path d="M9260 7131 c-54 -29 -81 -86 -86 -184 -6 -126 -37 -211 -99 -273 -66
-67 -136 -93 -265 -101 -165 -10 -265 11 -500 105 -199 79 -336 99 -480 68
-149 -32 -260 -95 -410 -231 -57 -52 -110 -90 -160 -114 l-75 -36 -163 -1
c-147 -1 -166 -3 -190 -21 -42 -31 -63 -76 -64 -137 -2 -73 34 -129 100 -159
39 -17 67 -21 172 -21 177 -1 266 17 393 80 86 43 119 67 232 172 50 46 115
95 145 110 48 24 67 27 150 27 93 -1 98 -2 231 -57 198 -83 331 -114 524 -122
277 -12 480 61 628 225 66 72 119 169 142 259 24 91 37 255 25 302 -12 44 -51
93 -91 113 -38 20 -117 18 -159 -4z"/>
<path d="M9622 5935 c-18 -8 -90 -55 -160 -103 -148 -104 -186 -125 -269 -146
-81 -21 -181 -20 -300 3 -181 36 -263 43 -391 36 -384 -21 -745 -201 -945
-470 -34 -45 -92 -148 -135 -235 -41 -85 -94 -180 -118 -211 -53 -69 -168
-158 -254 -197 -137 -63 -191 -74 -385 -81 -203 -7 -232 -16 -266 -81 -27 -50
-26 -137 4 -180 37 -56 65 -69 162 -81 249 -29 533 44 767 198 95 63 206 169
266 256 28 40 79 132 114 203 80 163 109 204 204 293 225 211 545 291 891 223
162 -32 279 -38 391 -18 172 30 266 72 447 199 166 117 215 174 215 253 0 50
-41 117 -84 138 -42 20 -110 20 -154 1z"/>
<path d="M11042 5340 c-66 -41 -62 92 -62 -1891 0 -1332 3 -1812 12 -1840 22
-76 14 -74 348 -74 284 0 299 1 320 20 53 47 50 -50 50 1895 0 1960 3 1856
-53 1893 -23 15 -59 17 -304 17 -261 0 -280 -1 -311 -20z"/>
<path d="M10039 4397 c-62 -42 -60 21 -57 -1442 3 -1321 3 -1330 24 -1365 34
-58 41 -60 349 -60 309 0 318 2 347 60 17 33 18 120 18 1383 0 1161 -2 1353
-15 1383 -25 60 -47 64 -358 64 -268 0 -275 0 -308 -23z"/>
<path d="M9062 3795 c-23 -10 -39 -28 -55 -62 l-22 -48 0 -1030 c0 -1021 0
-1030 21 -1065 34 -58 42 -60 342 -60 312 0 321 2 353 75 18 41 19 77 16 1071
-2 1125 1 1063 -60 1108 -27 20 -42 21 -295 23 -217 2 -273 0 -300 -12z"/>
<path d="M8063 3370 c-73 -44 -68 18 -71 -884 -2 -696 0 -816 12 -861 28 -93
16 -90 351 -93 l292 -3 31 26 c17 15 36 43 42 63 6 24 10 327 10 852 0 756 -1
818 -18 850 -32 66 -53 70 -352 70 -245 0 -267 -2 -297 -20z"/>
</g>
</svg>
