<?xml version="1.0" standalone="no"?>
<!DOCTYPE svg PUBLIC "-//W3C//DTD SVG 20010904//EN"
 "http://www.w3.org/TR/2001/REC-SVG-20010904/DTD/svg10.dtd">
<svg version="1.0" xmlns="http://www.w3.org/2000/svg"
 width="413.000000pt" height="531.000000pt" viewBox="0 0 413.000000 531.000000"
 preserveAspectRatio="xMidYMid meet">

<g transform="translate(0.000000,531.000000) scale(0.100000,-0.100000)"
fill="#000000" stroke="none">
<path d="M0 2655 l0 -2655 2065 0 2065 0 0 2655 0 2655 -2065 0 -2065 0 0
-2655z m4118 685 c1 -1075 0 -1970 -3 -1988 l-6 -34 -80 78 c-94 93 -136 122
-300 210 -68 36 -191 107 -274 158 -199 124 -304 185 -395 232 -58 30 -70 39
-52 42 12 2 22 7 22 12 0 5 15 17 33 26 40 21 47 31 47 71 0 17 4 34 9 37 5 3
7 15 4 26 -3 12 0 20 7 20 7 0 28 16 47 35 34 36 49 40 128 36 35 -2 43 2 64
31 14 18 34 40 45 48 40 28 76 72 76 94 0 12 6 30 13 41 8 11 17 36 21 54 3
19 14 46 23 60 40 60 53 121 47 216 -6 83 -5 93 17 130 19 31 25 60 29 130 l5
90 45 3 c66 5 82 24 74 86 -4 28 -13 59 -21 68 -12 14 -13 23 -3 52 9 29 8 39
-5 59 -13 20 -14 33 -6 68 15 65 14 69 -24 85 -19 8 -35 21 -35 30 0 8 -5 24
-11 35 -10 19 -12 19 -34 5 -14 -9 -31 -16 -38 -16 -24 0 4 70 31 77 58 14 62
94 9 151 -27 27 -38 32 -79 32 -44 0 -48 2 -48 24 0 19 -4 23 -20 19 -30 -8
-38 24 -11 43 24 18 28 34 6 34 -20 0 -30 47 -15 75 15 28 -2 59 -67 122 -32
30 -43 49 -43 71 0 22 -15 48 -56 96 -31 36 -63 66 -72 66 -23 0 -52 30 -52
54 0 33 -45 92 -82 107 -18 7 -42 24 -53 37 -28 33 -103 46 -144 26 -17 -9
-31 -21 -31 -28 0 -7 -11 -25 -25 -40 -22 -23 -29 -26 -67 -20 -24 4 -51 13
-60 21 -9 9 -35 17 -57 18 -22 2 -46 7 -53 11 -7 5 -17 9 -22 9 -12 0 -41 52
-59 106 -11 32 -20 43 -38 46 -13 2 -31 11 -39 21 -8 10 -23 21 -32 25 -10 3
-18 16 -18 27 0 15 -7 20 -28 20 -15 0 -35 9 -45 20 -10 12 -29 20 -48 20 -16
0 -40 5 -52 12 -12 6 -48 17 -80 24 -56 11 -59 11 -73 -12 -13 -19 -20 -21
-40 -13 -41 15 -93 10 -122 -11 -23 -17 -33 -18 -62 -10 -65 19 -94 13 -143
-30 -25 -22 -54 -40 -65 -40 -23 0 -34 -13 -36 -43 -1 -16 -9 -21 -46 -24 -25
-3 -50 -9 -57 -14 -8 -7 -18 -7 -32 0 -30 17 -59 13 -70 -8 -13 -24 -73 -34
-84 -15 -9 16 -52 10 -77 -11 -48 -38 -174 -90 -192 -79 -15 10 -39 -17 -33
-37 7 -21 -5 -25 -21 -9 -18 18 -103 0 -116 -24 -6 -12 -26 -41 -44 -65 -38
-50 -51 -99 -34 -131 9 -17 8 -29 -8 -63 -11 -23 -25 -59 -33 -79 -14 -41 -20
-44 -48 -26 -27 17 -51 -5 -51 -47 0 -33 -20 -48 -75 -57 -16 -3 -21 -12 -23
-52 -4 -63 3 -83 23 -66 13 11 24 4 66 -39 36 -37 49 -57 44 -69 -25 -62 -26
-71 -10 -102 18 -35 20 -29 -38 -95 -20 -21 -18 -54 8 -127 13 -40 11 -48 -14
-48 -23 -1 -114 -88 -107 -103 3 -6 11 -20 18 -29 10 -14 10 -20 0 -30 -9 -9
-18 -6 -43 18 l-31 29 -25 -29 c-22 -26 -24 -34 -17 -80 7 -51 30 -95 50 -96
6 0 32 -9 58 -20 l46 -21 -6 -42 c-3 -23 -14 -53 -23 -67 -10 -14 -21 -41 -25
-61 -3 -21 -13 -43 -22 -50 -27 -22 -37 -49 -23 -65 9 -12 9 -20 -1 -39 -7
-14 -11 -27 -9 -29 19 -17 120 -66 137 -66 30 0 38 -39 17 -80 -16 -31 -16
-35 1 -72 10 -23 36 -52 66 -73 26 -19 48 -39 48 -45 0 -14 33 -13 47 1 7 7
19 9 27 6 20 -8 21 -60 1 -77 -18 -15 -20 -49 -2 -51 6 -1 33 -1 60 1 42 2 50
-2 74 -29 29 -33 63 -40 82 -17 13 16 51 28 51 17 0 -5 -9 -16 -20 -26 -24
-21 -26 -48 -5 -65 11 -9 12 -16 2 -31 -16 -26 0 -39 51 -41 23 -1 42 -4 42
-8 0 -20 -201 -113 -410 -190 -58 -21 -179 -66 -270 -100 -91 -35 -219 -82
-285 -106 -80 -30 -127 -53 -140 -69 -12 -14 -24 -25 -28 -25 -9 0 -9 3594 0
3603 3 4 927 6 2052 4 l2046 -2 3 -1955z m-1722 544 c-6 -15 -4 -15 18 0 31
20 46 20 46 1 0 -10 10 -15 29 -15 47 0 78 -16 89 -47 5 -15 24 -43 42 -61 18
-18 30 -35 27 -39 -4 -3 2 -20 12 -37 22 -38 43 -177 34 -231 -3 -22 -5 -54
-5 -72 2 -26 -1 -31 -14 -26 -26 10 -12 -20 14 -32 12 -5 25 -18 28 -27 3 -10
9 -18 14 -18 5 0 17 -15 27 -32 15 -29 17 -60 16 -238 -2 -232 -10 -340 -26
-356 -4 -4 -7 -18 -7 -30 0 -13 -9 -38 -20 -56 -10 -18 -24 -57 -30 -86 -7
-29 -16 -50 -21 -46 -5 3 -9 -4 -9 -16 0 -11 -7 -23 -15 -26 -10 -4 -13 -14
-8 -32 4 -19 3 -23 -7 -17 -10 6 -11 2 -6 -19 5 -19 3 -26 -9 -26 -8 0 -16 -9
-16 -20 -2 -23 -2 -25 -18 -67 -7 -18 -17 -30 -22 -27 -5 3 -14 -6 -21 -20
-11 -26 -28 -35 -28 -16 0 18 -29 10 -40 -11 -7 -12 -18 -18 -26 -15 -8 3 -14
1 -14 -3 0 -5 -9 -7 -20 -4 -13 4 -20 0 -20 -9 0 -14 -92 -118 -104 -118 -3 0
-22 -16 -42 -35 -20 -20 -39 -34 -41 -31 -3 2 -21 -5 -41 -16 -30 -17 -53 -20
-136 -19 -114 2 -159 11 -207 44 -19 13 -41 21 -48 19 -10 -3 -12 1 -8 12 4 9
3 16 -2 16 -4 0 -23 14 -41 30 -18 17 -37 30 -42 30 -4 0 -8 8 -8 18 0 21 -35
45 -73 48 -29 2 -71 40 -61 55 3 5 -4 9 -14 9 -15 0 -22 9 -26 35 -4 19 -11
35 -17 35 -6 0 -7 5 -4 11 4 6 -2 19 -14 30 -12 11 -21 31 -21 45 0 14 -11 41
-24 61 -14 19 -22 42 -19 49 3 8 0 21 -7 29 -6 8 -9 18 -7 22 3 5 -1 33 -10
63 -8 30 -17 71 -19 90 -2 19 -7 51 -10 70 -23 144 -20 382 7 432 6 11 12 44
14 73 3 49 7 58 54 104 28 28 51 54 51 58 0 5 14 14 31 22 18 8 34 22 36 32 5
18 31 34 41 24 3 -2 -1 -12 -9 -21 -26 -31 33 -4 64 29 21 23 25 32 15 38 -10
7 -10 11 0 21 6 6 12 8 12 2 0 -5 8 -10 19 -10 12 0 23 12 30 33 7 17 20 35
31 38 10 3 22 15 25 26 4 11 19 27 33 36 15 9 45 36 67 60 46 50 80 59 133 37
29 -12 39 -12 66 0 37 15 66 50 66 79 0 12 6 17 18 16 9 -1 24 1 32 4 20 7 99
18 83 11 -25 -11 -13 -19 28 -20 32 -1 39 2 34 13 -4 12 0 14 19 9 14 -3 28
-2 31 4 3 6 -1 7 -9 4 -10 -4 -16 -1 -16 10 0 9 6 13 14 10 8 -3 17 -1 21 5
10 17 18 13 11 -5z m-296 -83 c0 -9 -33 -41 -43 -41 -6 0 -2 10 9 21 19 22 19
22 -2 11 -11 -6 -26 -7 -34 -2 -10 6 -7 9 11 12 31 6 59 5 59 -1z m-797 -1148
c15 -31 14 -32 -3 -23 -18 10 -32 44 -22 54 6 7 5 9 25 -31z m100 -332 c23
-39 22 -46 -8 -59 -43 -20 -44 -19 -36 85 2 20 25 5 44 -26z m152 -236 c127
-154 243 -229 423 -272 62 -14 84 -15 140 -6 65 11 126 8 117 -6 -9 -15 61 -3
100 16 22 11 58 29 80 39 22 10 62 31 88 46 l48 28 43 -25 c56 -33 71 -32 98
9 26 39 69 59 104 46 21 -8 23 -14 19 -57 -2 -26 -4 -52 -5 -56 0 -5 -5 -5
-12 -1 -7 4 -8 3 -4 -4 10 -16 -53 -102 -82 -113 -14 -6 -20 -14 -16 -21 5 -8
2 -9 -10 -5 -10 4 -15 3 -11 -3 5 -8 -57 -61 -148 -124 -61 -41 -255 -133
-307 -145 -119 -27 -305 -4 -414 51 -158 81 -301 250 -345 408 -25 89 -39 220
-24 220 14 0 24 -26 17 -45 -4 -8 -1 -15 6 -15 7 0 11 14 9 38 -1 20 -1 51 0
67 l2 30 22 -26 c12 -14 40 -47 62 -74z"/>
<path d="M2493 3383 c-13 -2 -23 -8 -23 -12 0 -8 -74 -22 -135 -26 -118 -7
-170 -31 -123 -56 16 -8 52 -9 127 -3 134 11 241 10 250 -3 8 -13 71 -34 82
-27 18 11 9 51 -15 64 -16 8 -22 18 -19 29 4 9 3 13 -1 9 -4 -3 -26 2 -49 13
-42 19 -53 20 -94 12z"/>
<path d="M1518 3360 c-7 -11 -18 -20 -25 -20 -19 0 -53 -50 -53 -78 0 -25 0
-25 21 -6 17 15 36 19 93 19 39 0 85 -2 101 -4 48 -6 185 -2 185 7 0 4 -7 15
-15 26 -11 14 -31 20 -85 24 -48 3 -70 1 -70 -7 0 -14 -37 -15 -45 -1 -3 6
-15 10 -26 10 -10 0 -19 5 -19 10 0 6 -7 10 -15 10 -8 0 -15 7 -15 15 0 21
-18 19 -32 -5z"/>
<path d="M1611 3347 c2 -1 13 -9 24 -17 19 -14 19 -14 6 3 -7 9 -18 17 -24 17
-6 0 -8 -1 -6 -3z"/>
<path d="M2270 3220 c-9 -6 -10 -10 -3 -10 6 0 15 5 18 10 8 12 4 12 -15 0z"/>
<path d="M2475 3220 c3 -5 8 -10 11 -10 2 0 4 5 4 10 0 6 -5 10 -11 10 -5 0
-7 -4 -4 -10z"/>
<path d="M2504 3204 c4 -11 1 -14 -12 -10 -43 12 -117 17 -155 11 -41 -7 -41
-8 -20 -25 15 -11 20 -24 16 -38 -3 -14 2 -25 20 -37 35 -23 75 -10 99 31 11
19 22 34 24 34 3 0 18 -10 34 -22 23 -17 27 -25 20 -39 -14 -25 -13 -26 15
-31 28 -6 65 23 65 50 -1 9 -8 26 -18 37 -38 46 -101 74 -88 39z m-129 -41
c-9 -8 -19 -13 -22 -9 -9 8 18 37 28 30 5 -3 2 -12 -6 -21z"/>
<path d="M1670 3190 c-25 -5 -65 -17 -90 -28 -33 -16 -46 -18 -52 -9 -5 9 -8
8 -8 -3 0 -8 -3 -25 -6 -37 -5 -19 -2 -23 15 -23 11 0 21 6 21 13 0 14 52 57
69 57 5 0 14 -13 19 -30 14 -38 53 -57 90 -44 24 9 32 22 48 82 3 10 12 9 41
-3 l38 -15 -24 20 c-13 11 -38 20 -56 20 -18 0 -39 2 -47 4 -7 2 -33 0 -58 -4z
m35 -36 c-9 -9 -18 -14 -21 -11 -9 9 6 27 22 27 13 0 13 -2 -1 -16z"/>
<path d="M2260 3180 c-8 -5 -10 -10 -5 -10 6 0 17 5 25 10 8 5 11 10 5 10 -5
0 -17 -5 -25 -10z"/>
<path d="M2195 3110 c3 -5 8 -10 11 -10 2 0 4 5 4 10 0 6 -5 10 -11 10 -5 0
-7 -4 -4 -10z"/>
<path d="M1890 2660 c0 -5 7 -10 16 -10 8 0 12 5 9 10 -3 6 -10 10 -16 10 -5
0 -9 -4 -9 -10z"/>
<path d="M2090 2655 c-10 -12 -9 -15 8 -15 27 0 52 10 52 21 0 15 -47 10 -60
-6z"/>
<path d="M2093 2558 c-13 -6 -23 -15 -23 -19 0 -5 -6 -6 -14 -3 -8 3 -17 0
-21 -6 -6 -9 -10 -9 -17 1 -8 12 -10 12 -15 1 -4 -10 -9 -8 -20 7 -14 21 -47
26 -88 15 -11 -3 -29 -23 -39 -44 -14 -29 -22 -37 -31 -30 -9 8 -14 6 -19 -5
-3 -8 -10 -15 -17 -15 -6 0 -8 7 -5 17 6 15 4 15 -14 -2 -12 -11 -20 -13 -20
-6 0 8 -5 9 -19 1 -25 -13 -34 -13 -26 0 15 25 -15 7 -42 -25 -17 -19 -35 -35
-40 -35 -6 0 -13 -9 -16 -20 -3 -11 -1 -20 4 -20 5 0 7 -11 3 -25 -4 -18 -1
-32 12 -46 15 -17 16 -22 4 -29 -12 -7 -12 -11 1 -26 8 -9 13 -25 11 -35 -3
-15 0 -16 22 -6 15 7 34 31 45 58 24 55 34 64 86 74 34 7 36 9 17 14 -30 8
-30 20 3 41 21 14 40 16 91 12 45 -3 68 -1 80 9 25 21 105 19 133 -2 13 -11
32 -19 42 -19 26 0 24 -25 -3 -44 -19 -14 -16 -15 42 -10 60 5 63 5 57 -15 -6
-26 -3 -26 38 -1 l33 21 25 -53 c14 -29 34 -72 44 -95 19 -46 33 -55 33 -23 0
11 4 20 10 20 5 0 7 13 4 29 -4 20 1 45 16 75 25 53 21 75 -21 124 -16 18 -29
36 -29 41 0 9 -48 34 -72 37 -9 0 -19 -5 -22 -12 -4 -10 -13 -11 -37 -4 -18 5
-35 14 -38 19 -4 5 -24 23 -45 40 -41 32 -66 37 -103 19z"/>
<path d="M1967 2183 c-39 -11 -42 -15 -41 -45 1 -26 7 -35 30 -44 16 -7 43
-10 61 -7 21 4 33 1 33 -6 0 -14 25 -14 67 1 23 8 37 22 45 45 8 22 15 29 20
20 5 -9 8 -7 8 4 0 9 -8 20 -17 25 -34 15 -164 19 -206 7z"/>
</g>
</svg>
